HIERARCHY
ROOT RootJoint
{
    OFFSET   0.000000   0.000000   0.000000
    CHANNELS 6 Xposition Yposition Zposition Xrotation Yrotation Zrotation
    JOINT pelvis_lowerback
    {
        OFFSET   0.000000   0.093605   0.000000
        CHANNELS 3 Xrotation Yrotation Zrotation
        JOINT lowerback_torso
        {
            OFFSET   0.000000   0.100000   0.000000
            CHANNELS 3 Xrotation Yrotation Zrotation
            JOINT torso_head
            {
                OFFSET   0.000000   0.282350   0.000000
                CHANNELS 3 Xrotation Yrotation Zrotation
                End Site
                {
                    OFFSET   0.000000   0.192650   0.000000
                }
            }
            JOINT rTorso_Clavicle
            {
                OFFSET  -0.001000   0.157500   0.000000
                CHANNELS 3 Xrotation Yrotation Zrotation
                JOINT rShoulder
                {
                    OFFSET  -0.117647   0.000000   0.000000
                    CHANNELS 3 Xrotation Yrotation Zrotation
                    JOINT rElbow
                    {
                        OFFSET  -0.245000   0.000000   0.000000
                        CHANNELS 3 Xrotation Yrotation Zrotation
                        JOINT rWrist
                        {
                            OFFSET  -0.240000   0.000000   0.000000
                            CHANNELS 3 Xrotation Yrotation Zrotation
                            End Site
                            {
                                OFFSET  -0.116353  -0.002500   0.000000
                            }
                        }
                    }
                }
            }
            JOINT lTorso_Clavicle
            {
                OFFSET   0.001000   0.157500   0.000000
                CHANNELS 3 Xrotation Yrotation Zrotation
                JOINT lShoulder
                {
                    OFFSET   0.117647   0.000000   0.000000
                    CHANNELS 3 Xrotation Yrotation Zrotation
                    JOINT lElbow
                    {
                        OFFSET   0.245000   0.000000   0.000000
                        CHANNELS 3 Xrotation Yrotation Zrotation
                        JOINT lWrist
                        {
                            OFFSET   0.240000   0.000000   0.000000
                            CHANNELS 3 Xrotation Yrotation Zrotation
                            End Site
                            {
                                OFFSET   0.116353  -0.002500   0.000000
                            }
                        }
                    }
                }
            }
        }
    }
    JOINT rHip
    {
        OFFSET  -0.100000  -0.051395   0.000000
        CHANNELS 3 Xrotation Yrotation Zrotation
        JOINT rKnee
        {
            OFFSET   0.000000  -0.410000   0.000000
            CHANNELS 3 Xrotation Yrotation Zrotation
            JOINT rAnkle
            {
                OFFSET   0.000000  -0.390000   0.000000
                CHANNELS 3 Xrotation Yrotation Zrotation
                JOINT rToeJoint
                {
                    OFFSET   0.000000  -0.050000   0.130000
                    CHANNELS 3 Xrotation Yrotation Zrotation
                    End Site
                    {
                        OFFSET  -0.010000   0.002000   0.060000
                    }
                }
            }
        }
    }
    JOINT lHip
    {
        OFFSET   0.100000  -0.051395   0.000000
        CHANNELS 3 Xrotation Yrotation Zrotation
        JOINT lKnee
        {
            OFFSET   0.000000  -0.410000   0.000000
            CHANNELS 3 Xrotation Yrotation Zrotation
            JOINT lAnkle
            {
                OFFSET   0.000000  -0.390000   0.000000
                CHANNELS 3 Xrotation Yrotation Zrotation
                JOINT lToeJoint
                {
                    OFFSET   0.000000  -0.050000   0.130000
                    CHANNELS 3 Xrotation Yrotation Zrotation
                    End Site
                    {
                        OFFSET   0.010000   0.002000   0.060000
                    }
                }
            }
        }
    }
}
MOTION
Frames: 15
Frame Time:   0.008333
 -2.376719   0.925631   3.975860   0.000000   0.000000   0.000000   0.000000   0.000000   0.000000   0.000000   0.000000   0.000000   0.000000   0.000000   0.000000   0.000000   0.000000   0.000000   0.000000   0.000000   0.000000   0.000000   0.000000   0.000000   0.000000   0.000000   0.000000   0.000000   0.000000   0.000000   0.000000   0.000000   0.000000   0.000000   0.000000   0.000000   0.000000   0.000000   0.000000   0.000000   0.000000   0.000000   0.000000   0.000000   0.000000   0.000000   0.000000   0.000000   0.000000   0.000000   0.000000   0.000000   0.000000   0.000000   0.000000   0.000000   0.000000   0.000000   0.000000   0.000000   0.000000   0.000000   0.000000
 -2.376373   0.924837   3.976506  -0.358573   0.250909  -0.004399   0.312235   0.054846  -0.059561   0.090023  -0.099480   0.288870   0.050907   0.028195  -0.155067  -0.217362  -0.760761  -0.591561  -2.125545  -0.492910   0.731508   0.009316   3.671694   0.073523  -0.115505  -0.910944  -0.681931   0.302709   0.583161   0.581397   2.301902  -0.072647  -1.684532   0.031038  -3.624950   0.084568   0.156477   1.128906   0.393516   0.502372  -0.177187  -0.184258  -0.000000  -0.000000   0.000000  -0.376649  -0.456933  -0.070421  -0.031170  -0.000071   0.000104   0.283455  -0.116200   0.135028   0.540322  -0.000607   0.000638  -0.945885   0.207815   0.239006  -0.120982   0.000389  -0.000361
 -2.375879   0.923590   3.977288  -0.743867   0.543763   0.000598   0.559856   0.095077  -0.081199   0.191307  -0.236602   0.587486   0.140332   0.063341  -0.278497  -0.444416  -1.506179  -1.087398  -4.121947  -0.941830   1.464543   0.012754   7.442555   0.133984  -0.291820  -0.911539  -1.177746   0.605044   1.083811   0.951566   4.460745  -0.304417  -3.415213   0.074709  -7.374013   0.148568   0.400750   1.256815   0.497781   1.043502  -0.353659  -0.520972  -0.000000  -0.000000   0.000000  -0.729836  -0.890239  -0.141877  -0.081258  -0.000235   0.000220   0.614803  -0.212541   0.391625   1.134689  -0.001796   0.001556  -1.833171   0.403995   0.467013  -0.280012   0.000988  -0.000829
 -2.375303   0.923573   3.978149  -1.164666   0.862768   0.062972   0.788914   0.101073  -0.118597   0.283383  -0.400010   0.856860   0.223715   0.097239  -0.382786  -0.659816  -2.178346  -1.370859  -5.978854  -1.365390   2.237621   0.015980  11.228373   0.181200  -0.461689  -0.692021  -1.550832   0.887018   1.487373   1.065665   6.463380  -0.633960  -5.163576   0.127605 -11.149366   0.194079   0.641094   1.092506   0.424963   1.599188  -0.620828  -0.636061  -0.000000  -0.000000   0.000000  -0.926456  -1.396227  -0.037741  -0.093483  -0.000184   0.000224   0.876059  -0.189832   0.319761   1.625455  -0.001311   0.002729  -2.541101   0.687417   0.507219  -0.369206   0.000813  -0.001153
 -2.374724   0.923571   3.979116  -1.581577   1.137998   0.114245   0.971936   0.102359  -0.124558   0.354058  -0.561640   1.111231   0.296897   0.129340  -0.474819  -0.859253  -2.780938  -1.594053  -7.701933  -1.768866   2.998363   0.012997  15.020156   0.218583  -0.627113  -0.423512  -1.738471   1.153667   1.827509   1.089317   8.321709  -1.030698  -6.865133   0.178333 -14.939191   0.225337   0.866117   0.813706   0.116650   2.157064  -0.820108  -0.722025  -0.000000  -0.000000   0.000000  -1.176595  -1.807661  -0.043181  -0.118919  -0.000159   0.000253   1.136779  -0.208805   0.249905   2.137153  -0.000853   0.003343  -3.272156   0.895161   0.639276  -0.485992   0.000759  -0.001401
 -2.374169   0.923553   3.980152  -1.983789   1.359563   0.157021   1.116984   0.102380  -0.117797   0.401457  -0.714143   1.351717   0.358915   0.159276  -0.556295  -1.043712  -3.323734  -1.762588  -9.301077  -2.155811   3.728543   0.004491  18.815360   0.248361  -0.787142  -0.143146  -1.840160   1.405727   2.122699   1.045303  10.044575  -1.471972  -8.490427   0.224397 -18.736794   0.246291   1.076037   0.488806  -0.312230   2.695784  -1.004164  -0.794704   0.000000  -0.000000   0.000000  -1.405203  -2.187240  -0.054158  -0.148347  -0.000142   0.000289   1.397597  -0.225287   0.190680   2.633549  -0.000490   0.003573  -3.956698   1.083804   0.769141  -0.597763   0.000710  -0.001510
 -2.373657   0.923522   3.981243  -2.366391   1.532341   0.190690   1.229354   0.101484  -0.105071   0.429487  -0.856465   1.576726   0.411452   0.186986  -0.629466  -1.213446  -3.816804  -1.889326 -10.784575  -2.529713   4.423021  -0.008758  22.611963   0.272282  -0.941649   0.135463  -1.892180   1.644790   2.384256   0.953915  11.641726  -1.942901 -10.031232   0.264917 -22.539145   0.260056   1.271325   0.146190  -0.813142   3.219092  -1.180485  -0.854442  -0.018524  -0.000008  -0.000000  -1.608240  -2.541060  -0.065169  -0.174865  -0.000127   0.000312   1.654041  -0.235464   0.143256   3.110024  -0.000216   0.003540  -4.595216   1.257670   0.893076  -0.699806   0.000657  -0.001512
 -2.373298   0.923413   3.982206  -2.609094   1.517237   0.209938   1.243282   0.213984  -0.162619   0.405644  -0.999499   1.854604   0.459825   0.187981  -0.674072  -1.440163  -4.410711  -1.898272 -12.574880  -2.735635   5.008685  -0.033414  26.419185   0.309484  -1.148719   0.429079  -1.873230   2.047833   2.669143   1.014817  13.550912  -2.496241 -11.506884   0.305021 -26.364291   0.291893   1.395064  -0.348133  -1.479834   3.436683  -1.318828  -0.910178   0.182938   0.000067  -0.000268  -1.694060  -2.963494  -0.106079  -0.105277  -0.000045  -0.000098   1.798482  -0.248001   0.108836   3.509627  -0.000083   0.002738  -5.004732   1.475665   0.954445  -0.690458   0.000522  -0.001194
 -2.373007   0.923292   3.983200  -2.840629   1.427991   0.219939   1.254736   0.326441  -0.223874   0.379133  -1.125495   2.127487   0.503695   0.187195  -0.716919  -1.654671  -4.969225  -1.894340 -14.244812  -2.945918   5.552630  -0.062761  30.228731   0.340023  -1.360606   0.736811  -1.888990   2.434121   2.951109   1.091197  15.329841  -3.044811 -12.860523   0.339198 -30.185719   0.316809   1.520023  -0.834617  -2.197373   3.621262  -1.457317  -0.959863   0.407352   0.000127  -0.000660  -1.758599  -3.361081  -0.141465  -0.025952   0.000025  -0.000510   1.948813  -0.262467   0.080326   3.890694  -0.000001   0.001846  -5.377460   1.677474   1.013670  -0.666737   0.000410  -0.000935
 -2.372779   0.923163   3.984236  -3.061004   1.281101   0.219475   1.259960   0.431331  -0.277057   0.352479  -1.242034   2.387550   0.544619   0.186317  -0.758033  -1.852439  -5.488387  -1.890601 -15.798219  -3.157384   6.053959  -0.095807  34.037338   0.365639  -1.563663   1.032425  -1.918142   2.794803   3.213178   1.165060  16.978708  -3.599778 -14.106826   0.364209 -33.839197   0.332730   1.633402  -1.357304  -2.900195   3.791333  -1.590653  -1.001222   0.626954   0.000163  -0.001066  -1.813762  -3.732544  -0.173845   0.049028   0.000073  -0.000834   2.102816  -0.274122   0.059423   4.256841   0.000041   0.000969  -5.725746   1.864559   1.070921  -0.643688   0.000322  -0.000742
 -2.372621   0.923030   3.985313  -3.268045   1.081852   0.208428   1.259109   0.527315  -0.321405   0.324696  -1.352257   2.632720   0.582077   0.185455  -0.796281  -2.035133  -5.969578  -1.892155 -17.243891  -3.366145   6.512585  -0.132031  37.845264   0.388218  -1.757595   1.312971  -1.960803   3.131058   3.452759   1.231127  18.506514  -4.157555 -15.256983   0.379499 -37.255474   0.340394   1.734483  -1.902597  -3.582463   3.948312  -1.717916  -1.033706   0.836211   0.000180  -0.001451  -1.861577  -4.079222  -0.203716   0.118170   0.000104  -0.001073   2.258324  -0.282145   0.046564   4.606927   0.000052   0.000140  -6.052594   2.038332   1.125834  -0.622131   0.000252  -0.000600
 -2.372542   0.922894   3.986430  -3.460928   0.835159   0.187019   1.253343   0.615132  -0.358763   0.296034  -1.456226   2.862184   0.616043   0.184441  -0.831238  -2.204498  -6.417146  -1.901762 -18.590083  -3.570921   6.929175  -0.171201  41.652377   0.409350  -1.942608   1.578264  -2.020505   3.445311   3.674585   1.289944  19.923329  -4.709149 -16.318701   0.386716 -40.446100   0.341949   1.824484  -2.437073  -4.244785   4.092528  -1.839289  -1.057024   1.033934   0.000179  -0.001800  -1.903021  -4.402797  -0.231115   0.181645   0.000121  -0.001242   2.414113  -0.286853   0.041926   4.940473   0.000036  -0.000622  -6.359775   2.199737   1.178456  -0.602100   0.000197  -0.000495
 -2.372550   0.922754   3.987583  -3.639594   0.546296   0.155670   1.243741   0.695649  -0.391256   0.267007  -1.553976   3.075500   0.646995   0.183258  -0.863074  -2.362181  -6.835129  -1.921116 -19.844495  -3.770875   7.304968  -0.213377  45.458526   0.430512  -2.118890   1.828131  -2.100335   3.739308   3.882335   1.343438  21.238035  -5.248654 -17.298389   0.387416 -43.424887   0.339019   1.904707  -2.950947  -4.885998   4.224493  -1.955078  -1.070997   1.220125   0.000165  -0.002102  -1.938858  -4.704885  -0.256038   0.239843   0.000127  -0.001353   2.569378  -0.288710   0.045566   5.257555   0.000002  -0.001305  -6.648730   2.349584   1.228910  -0.583527   0.000153  -0.000419
 -2.372619   0.922619   3.988628  -3.650020   0.351340   0.118842   1.042938   0.757944  -0.429737   0.264716  -1.655451   3.281919   0.721231   0.194991  -0.784779  -2.501273  -7.305704  -1.914996 -21.100968  -4.012296   7.649907  -0.259865  49.266002   0.457294  -2.321720   2.083687  -2.245787   4.168324   4.021391   1.536346  22.591771  -5.868555 -18.182868   0.398317 -46.578561   0.352828   1.951193  -3.289665  -5.554139   4.184999  -2.108726  -1.078614   1.405497   0.000159  -0.002252  -1.984341  -5.162694  -0.237857   0.345315   0.000116  -0.001827   2.525604  -0.273614   0.063036   5.566211  -0.000023  -0.001533  -6.851205   2.429950   1.306408  -0.545816   0.000102  -0.000369
 -2.372721   0.922497   3.989631  -3.641784   0.186847   0.085622   0.856823   0.805737  -0.465393   0.258626  -1.767973   3.485182   0.791749   0.209091  -0.706772  -2.635225  -7.748602  -1.918993 -22.276610  -4.241557   7.957979  -0.303690  52.899752   0.479617  -2.515302   2.403110  -2.434519   4.564042   4.126839   1.745211  23.843550  -6.487080 -18.975759   0.403161 -49.545388   0.361272   1.987073  -3.748683  -6.227897   4.137827  -2.256528  -1.083811   1.570571   0.000145  -0.002256  -2.030346  -5.594416  -0.217066   0.442638   0.000099  -0.002096   2.472030  -0.255175   0.082370   5.841998  -0.000045  -0.001580  -7.041663   2.504013   1.380289  -0.505408   0.000058  -0.000322
